<svg xmlns="http://www.w3.org/2000/svg" width="1000" height="1000"><path d="M410 452c1.68.29 3.34.62 5 1 .55 4.96-.23 7.79-2.5 12.25-3.22 6.71-3.82 12.52-1.59 19.66.95 2.42 1.96 4.76 3.09 7.09l2-3c2.14-.26 2.14-.26 4.81-.12 14.89.41 14.89.41 20.88-1.39 3.34-.71 6.67-.67 10.07-.7l4.58-.09c2.4-.04 4.8-.08 7.2-.1 2.32-.03 4.65-.07 6.97-.12.36-.01.36-.01 2.18-.01 2.03-.05 2.03-.05 5.31-.47 4.24-6.36 2.4-16.66 1-24l4-1c4.21 5.17 5.58 9.74 5.45 16.37-.99 5.77-4.78 9.87-8.7 14.01-7.46 4.4-16.23 5.28-24.69 6.24-2.03.24-4.06.49-6.09.73-.88.1-1.77.2-2.68.31C444 499 444 499 441 500c-2.52.31-5.04.6-7.56.88-6.41.73-12.35 1.95-18.44 4.12-.5.17-.5.17-3 1-2.67-3.21-4.13-6.42-5.62-10.31-.22-.55-.22-.55-1.29-3.3-3.92-12.22-2.62-25.76 2.75-37.27C409 453 409 453 410 452"/><path d="M539.034 403.5c2.06.52 4.13 1.02 6.2 1.5 6.41 1.51 12.57 3.04 18.52 5.95 2.73 1.28 5.53 2.27 8.37 3.3 15.66 5.96 29.17 14.94 41.88 25.75.88.75 1.76 1.49 2.67 2.26 4.85 4.21 8.98 8.5 12.76 13.7 1.57 2.04 1.57 2.04 3.48 3.87 2.65 2.76 4.58 5.87 6.59 9.11 4.06 6.54 4.06 6.54 6.54 9.51 2.5 3.26 4.08 6.69 5.77 10.43.69 1.51 1.39 3.02 2.08 4.53.35.77.7 1.53 1.06 2.31 1.01 2.2 2.04 4.38 3.09 6.55.32.67.64 1.34.96 2.04.88 1.84 1.77 3.68 2.65 5.52 1.18 2.78 1.9 5.2 2.35 8.17h2v2l3.5-.25c4.32-.05 7.03 1.29 10.64 3.57 1.86.68 1.86.68 3.85-.01 5.19-3.39 9.54-7.44 13.13-12.5 2.53-3.52 4.95-5.8 8.88-7.81 2.87-.25 2.87-.25 5 0v4c-2.02 2.01-2.02 2.01-4.82 4.12-4.01 3.14-7.84 6.34-11.56 9.82-4.6 4.25-9.41 8.07-14.47 11.75-4.05 2.99-4.05 2.99-5.15 6.31 1.31 2.52 2.87 4.78 4.45 7.14 1.93 3.58 2.68 6.89 3.55 10.86 1.15.06 2.31.12 3.5.18 1.54.09 3.08.17 4.62.26.76.04 1.52.08 2.31.12 4.25.24 8.37.64 12.57 1.44 2-3 2.32-4.13 2.71-7.57.11-.9.22-1.79.33-2.72.22-1.87.43-3.73.64-5.6.92-7.37 2.8-13.7 7.25-19.73 2.07-1.38 2.07-1.38 4.82-1.13.74.25 1.48.5 2.25.75l1 4c-.5.33-.5.33-3 2-5.21 8.17-6.94 16.65-7.76 26.15-.24 1.85-.24 1.85-1.24 3.85.5.06.5.06 3.06.38 3.79.6 7.25 1.55 10.94 2.62 3.82.97 7.65 1.94 11.47 2.9 3.29 1.03 5.79 2.01 8.53 4.1v3c-6.19.23-11.56-.58-17.57-2-5.61-1.32-10.66-2.25-16.43-2l-.88 3.12a79 79 0 0 1-2.31 7c-.94 3.34-1.07 4.66.19 7.88a75 75 0 0 0 4.82 5.25c1.18 1.75 1.18 1.75.86 3.96-.12.3-.12.3-.68 1.79-2.13-.06-2.13-.06-5-1-1.46-1.62-1.46-1.62-2.94-3.56-2.66-3.39-2.66-3.39-6.44-3.88-.43.07-.43.07-2.62.44-.09 5.31-.15 10.49.62 15.75.56 4.25-.17 7.24-1.62 11.25 14.59 3.44 14.59 3.44 22 3 .14-.95.29-1.9.43-2.88.57-3.12.57-3.12 1.57-5.12.27-3.6.44-7.2.62-10.81.38-3.19.38-3.19 2.38-5.19 2.62-.12 2.62-.12 5 0-.15.8-.29 1.61-.44 2.44-.56 3.56-.95 7.11-1.28 10.7-.28 1.86-.28 1.86-1.28 2.86-.6 3.94-1.07 8.19 1.02 11.73q1.5 1.605 3.06 3.15c3.05 3.38 5.29 7.27 7.67 11.15 1.67 2.69 3.29 5.01 5.54 7.26.56.56 1.12 1.13 1.71 1.71-.25 2.25-.25 2.25-1 4-3.74-.5-5.82-.87-9-3v-2h-2c-3.89-4.8-9-11.56-9-18-5.25 1.53-9.75 3.88-14.5 6.5-7.79 4.28-7.79 4.28-11.95 5.55-.84.31-1.69.63-2.55.95-1.21 3.28-1.69 5.58-2 9-.11 1.08-.22 2.17-.32 3.29-.47 9.13 1.61 15.05 6.32 22.71 1.5 2.49 3.01 4.98 4.51 7.48 1.05 1.72 2.1 3.43 3.17 5.14 8.14 13.2 12.08 27.46 8.77 42.93-3.05 11.15-7.69 21.84-12.43 32.35-7.89 17.61-6.54 34.72.15 52.56 1.09 2.78 2.26 5.49 3.49 8.2 3.38 8.46 4.1 19.92 1.28 28.59-4.63 9.63-11.27 18.13-18.41 26.02-1.34 1.51-2.57 3.12-3.78 4.73-.58.66-1.16 1.32-1.75 2h-3c.58-3.25 1.52-4.84 3.81-7.19 3.86-4.24 7.14-8.81 10.44-13.5.52-.73 1.03-1.47 1.57-2.23 6.19-8.86 9.03-15.1 8.18-26.08-1.6-8.91-4.91-16.98-8.37-25.29-7.43-19.61-3.33-36.94 4.88-55.55 2.62-5.97 4.95-11.97 6.99-18.16.12-.37.12-.37.73-2.23 4.36-13.54 3.76-25.85-2.71-38.7-2.15-3.76-4.45-7.41-6.8-11.05q-1.38-2.13-2.73-4.26c-.89-1.39-1.79-2.78-2.71-4.15-2.49-3.88-3.89-6.91-4.28-11.61h-2c-.11.66-.22 1.32-.32 2-2.52 11.09-7.83 21.63-13.12 31.62-.47.89-.93 1.78-1.41 2.69-2.16 4.08-4.37 8.09-6.81 12.01-5.65 9.39-5.65 9.39-4.82 15.63.75 2.62 1.7 4.93 2.81 7.45 5.06 12.46 5.23 26.82 5.75 40.06.1 2.74.23 5.47.35 8.21 1.63 36.72 1.63 36.72-7.43 48.33-3.6 5.14-5.11 8.4-5.14 14.63-.34 18.97-.34 18.97-5.86 26.37-.66.89-1.33 1.78-2.01 2.7-5.25 6.77-5.25 6.77-7.81 8.59-1.18 1.71-1.18 1.71-.86 5.3.3 1.45.6 2.9.93 4.35 1.1 5.33 1.87 10.28 1.93 15.75.22 3.13.36 4.74 2.34 7.2 2.07 1.62 4.15 2.87 6.48 4.11.72.41 1.43.83 2.18 1.25 1.42.81 2.86 1.61 4.31 2.38 2.64 1.44 5.22 2.97 7.8 4.53.88.53 1.77 1.06 2.68 1.62.67.4 1.34.8 2.03 1.22-1.1-4.31-2.21-8.63-3.32-12.94-.3-1.21-.61-2.42-.93-3.67-1.34-5.19-2.67-10.32-4.46-15.37-2.79-8.11-2.22-16.47 1.3-24.25 1.09-2.15 2.2-4.28 3.31-6.42 5.93-11.39 10.04-22.4 11.1-35.35l3-1c1.12 15.05-4.3 27.27-11.09 40.23-3.67 7.14-6.55 13.4-4.1 21.43.33 1.03.67 2.05 1.02 3.11 1.54 4.92 2.76 9.79 3.77 14.85.13.64.13.64.8 3.89.4 1.98.79 3.95 1.15 5.93 2.02 11.04 2.02 11.04 5.44 14.67 2.27 1.56 4.5 2.75 7.01 3.89 1.21.65 2.42 1.3 3.64 1.95 1.2.58 2.4 1.16 3.61 1.74 1.37.67 2.75 1.34 4.12 2.02.37.18.37.18 2.22 1.09 4.58 2.28 9.12 4.65 13.66 7.01.45.24.45.24 2.74 1.42.85.45 1.71.89 2.58 1.35.38.2.38.2 2.3 1.2 2.18 1.25 4.14 2.67 6.13 4.22.39-.81.79-1.62 1.2-2.45.27-.53.27-.53 1.61-3.24.26-.53.26-.53 1.58-3.2 1.01-1.96 2.09-3.9 3.23-5.79 1.38-2.32 1.38-2.32 2.56-5.7 2.48-6.88 6.31-13.22 9.82-19.62.54-1 1.08-2 1.64-3.03q2.925-5.37 5.88-10.74c2.35-4.26 4.63-8.52 6.73-12.92 2.33-4.73 5.03-9.2 7.81-13.69.42-.69.85-1.38 1.28-2.09 2.28-3.62 4.6-6.51 7.66-9.53.31-2.69.31-2.69 0-5l-1-1c-.43-4.02-.53-7.75 1.06-11.5 2.81-2.17 5.46-2.24 8.94-2.5.24-.67.48-1.35.73-2.04 1.56-3.64 3.52-6.9 5.58-10.27.4-.66.8-1.33 1.22-2.01.79-1.3 1.59-2.61 2.39-3.91.91-1.5 1.81-3.01 2.71-4.53 1.07-1.78 2.21-3.52 3.37-5.24h2c.26-.72.53-1.44.8-2.18 1.22-2.88 2.67-5.32 4.37-7.94.63-.97 1.25-1.93 1.89-2.92l1.94-2.96c.58-.9 1.17-1.81 1.78-2.74 1.8-2.75 3.6-5.51 5.4-8.26 5.4-8.25 10.72-16.53 15.96-24.88 1.28-2.05 2.57-4.08 3.86-6.12.37-.61.75-1.22 1.14-1.85.9-1.42 1.87-2.79 2.86-4.15h2c.07-.52.15-1.04.23-1.58 1.08-3.41 3.04-6.16 5.02-9.11 2.61-3.97 5.17-7.93 7.43-12.12 3.37-6.22 6.98-12.47 12.32-17.19l4 2c-4.14 11.1-11.32 21.24-17.7 31.16-2.36 3.69-4.63 7.38-6.72 11.23-2.95 5.39-6.32 10.48-9.71 15.61-1.33 2.03-2.67 4.06-4 6.1-.65.99-1.31 1.99-1.98 3.02-2.69 4.09-5.36 8.2-8.02 12.32-.42.65-.85 1.31-1.28 1.98q-3.12 4.815-6.15 9.69c-2.05 3.29-4.21 6.48-6.44 9.64-4.05 5.77-7.92 11.65-11.75 17.56-.55.84-1.09 1.67-1.65 2.53-1.04 1.62-2.08 3.23-3.11 4.85-.99 1.53-2 3.05-3.03 4.55-.23.35-.23.35-1.42 2.12-.42.6-.84 1.21-1.27 1.84-1 2.34-.67 3.46.23 5.8 3.7 3.78 7.71 5.61 13 6q.345-1.02.72-2.07c1.54-3.53 3.6-6.58 5.78-9.74 4.21-6.21 8.25-12.52 12.18-18.91 4.3-6.96 4.3-6.96 6.32-9.28h2c.11-.59.22-1.17.33-1.78.73-2.44 1.67-3.81 3.26-5.8.53-.68 1.06-1.36 1.61-2.06.57-.71 1.14-1.43 1.73-2.17 4.88-6.23 9.46-12.54 13.73-19.19 1.86-2.88 3.79-5.61 6-8.22 2.1-2.5 3.62-4.95 5.18-7.8 1.91-3.28 4.15-6.32 6.35-9.4 2.28-3.26 4.42-6.6 6.54-9.96.21-.27.21-.27 1.27-1.62h2c.08-.55.17-1.09.26-1.66.97-3.09 2.62-5.23 4.55-7.84.69-.94 1.37-1.88 2.08-2.84 1.92-2.43 3.78-4.63 6.11-6.66 2.25.25 2.25.25 4 1-1.29 3.51-2.82 6.43-4.94 9.5-1.55 2.26-3.06 4.5-4.47 6.85-1.49 2.48-3.06 4.9-4.67 7.31l-1.76 2.64-1.85 2.76c-.63.95-1.26 1.89-1.91 2.86-1.25 1.87-2.5 3.73-3.74 5.6-1.98 2.95-3.95 5.9-5.91 8.86l-1.85 2.76c-1.39 2.08-2.77 4.16-4.15 6.25-4.61 6.95-9.28 13.86-14 20.73-6.5 9.47-12.88 19.03-19.23 28.6-1.33 1.99-2.67 3.97-4.01 5.96-1.86 2.75-3.7 5.53-5.51 8.32-.53.77-1.05 1.54-1.59 2.33-3.36 5.31-3.63 9.07-3.35 15.28-.06 2.39-.06 2.39-1.63 4.89-2.43 1.5-2.43 1.5-5.8 2.64-4.48 1.9-6.02 4.96-8.13 9.17l-1.15 2.15c-1.14 2.17-2.25 4.35-3.35 6.54-.17.32-.17.32-.99 1.96-1.48 2.96-2.95 5.92-4.4 8.89-1.4 2.74-2.9 5.31-4.55 7.9-4.1 6.63-6.97 13.85-10.07 20.98-1.5 3.43-3.09 6.82-4.68 10.21-2.08 4.43-4.15 8.86-6.19 13.31-.39.85-.78 1.7-1.18 2.58-.94 2.17-.94 2.17-1.94 5.17 1.18.46 2.36.92 3.58 1.39 4.07 1.58 8.14 3.16 12.21 4.75 1.78.69 3.56 1.39 5.35 2.07 7.97 3.13 15.14 6.87 22.36 11.48.63.4 1.27.81 1.93 1.22 1.54 1 3.05 2.04 4.57 3.09v1c-6.49.72-9.65-.64-15.04-4.15-5.46-3.4-11.29-6.12-17.07-8.93-1.7-.83-3.39-1.66-5.09-2.51-5.37-2.58-9.83-4.07-15.8-4.41-.32.86-.63 1.71-.96 2.6-2.29 6.11-4.57 11.87-8.04 17.4h-9c.37-.79.75-1.58 1.13-2.39 2.69-5.71 5.2-11.36 7.37-17.3 1.86-4.99 4.18-9.23 7.03-13.72 2.22-3.92 3.64-8.09 5.2-12.31 2.04-5.29 4.67-10.25 7.27-15.28.99-1.97 1.98-3.95 2.96-5.93 1.03-2.06 2.07-4.12 3.1-6.18 1.18-2.37 2.35-4.74 3.5-7.12 3.13-6.45 6.67-12.51 10.47-18.59 8-12.95 8-12.95 8.97-19.18-1.43-1.18-2.87-2.34-4.32-3.5-.8-.65-1.6-1.3-2.42-1.97-2.26-1.53-2.26-1.53-5.26-1.53-.5.88-1 1.77-1.51 2.68-3.17 5.6-6.34 11.18-9.87 16.57-7.78 12.08-14.34 24.91-20.66 37.8-.96 1.95-1.94 3.89-2.92 5.84a887 887 0 0 0-11.68 24.03c-2.12 4.51-4.31 8.97-6.59 13.4-3.54 6.88-6.42 13.73-8.86 21.08-.91 2.6-.91 2.6-1.91 3.6-1.52.07-3.05.08-4.57.06-.82-.01-1.65-.02-2.5-.02-.64-.02-1.28-.03-1.93-.04 2.29-6.05 4.84-11.95 7.56-17.81.29-.64.58-1.27.89-1.92 1.3-2.78 2.64-5.43 4.26-8.03 1.29-2.24 1.29-2.24 1.29-5.24-.56-.26-1.12-.52-1.69-.79-15.59-7.32-30.95-14.65-45.31-24.21-.05 1.1-.1 2.19-.15 3.32-.08 1.46-.15 2.91-.23 4.37l-.09 2.18c-.23 4.1-.71 7.37-2.53 11.13h-3c.15-.8.3-1.61.46-2.44 1.05-6.98 2.04-14.58.54-21.56-2.49-3.28-5.24-4.5-9-6-14.38-9.38-14.38-9.38-19-14-2.13-.62-2.13-.62-4-1-.26.59-.51 1.19-.78 1.8-4.91 8.82-17.45 13.15-26.22 17.2-1.03.48-2.05.95-3.11 1.44-7.18 3.16-14.57 5.33-22.11 7.45-3.78 1.11-3.78 1.11-6.21 2.1-2.51.98-4.9 1.64-7.52 2.23-.93.21-1.87.42-2.83.64-.96.21-1.92.42-2.91.64-.94.21-1.89.43-2.86.64-5.5 1.24-11.02 2.38-16.57 3.41-1.88.45-1.88.45-2.88 1.45-1.97.36-3.95.66-5.94.94-1.2.17-2.41.34-3.65.52-1.27.18-2.54.36-3.85.54-2.5.35-5 .71-7.5 1.06-.55.08-.55.08-3.37.48-2.69.46-2.69.46-4.69 1.46-3.66.27-7.31.44-10.97.61-5.93.29-5.93.29-7.03 1.39-1.74.1-3.47.14-5.21.15-.55 0-.55 0-3.37.01-1.21.01-2.42.01-3.67.01s-2.49 0-3.77.01c-2.64 0-5.28.01-7.92.01-2.69 0-5.39 0-8.09.02-3.88.01-7.77.02-11.66.02-1.2.01-2.4.01-3.63.02-16.28-.04-16.28-.04-22.68-5.25q.87.105 1.77.21c6.66.74 13.22.95 19.91.96 1.09 0 2.19 0 3.32.01 2.31 0 4.62.01 6.92.01 3.47 0 6.94.02 10.41.03 17.35.05 34.07-1.26 51.17-4.16 2.13-.35 4.27-.71 6.41-1.06 1.03-.17 2.06-.34 3.12-.52 2.71-.44 5.43-.84 8.15-1.23 9.39-1.34 18.34-3.31 27.44-5.99 5.56-1.63 11.19-2.94 16.83-4.27 3.73-1.04 7-2.42 10.55-3.99 1.34-.46 2.7-.9 4.06-1.31 5.36-1.74 10.47-4.02 15.62-6.28 2.61-1.11 5.2-2.11 7.88-3.03 3.46-1.39 5.64-2.96 8.44-5.38 1.66-1.01 3.33-2.01 5-3 2.55-2.55 2.25-4.23 2.27-7.72-.01-.75-.01-1.5-.02-2.28-.01-.76-.01-1.53-.02-2.31-.08-5.73-.71-11.15-2.23-16.69-.24.19-.24.19-1.44 1.17-6.96 5.49-13.48 9.6-22.56 8.83l1-3c2.44-.96 2.44-.96 5.56-1.81 5.78-1.78 9.92-4.21 14.44-8.19-.75-2.44-.75-2.44-2-5-1.84-.85-1.84-.85-4-1-1.91 1.19-1.91 1.19-3.94 3-7.63 6.27-16.15 10.81-25.7 13.33-2.41.68-4.62 1.56-6.93 2.55-5.31 2.19-10.75 3.76-16.27 5.33-3.59 1.02-7.11 2.1-10.6 3.41-5.03 1.74-10.27 2.38-15.51 3.19-4.99.78-9.8 1.85-14.68 3.19-20.84 5.51-42.95 5.86-64.37 7l-1-2c16.4-3.24 16.4-3.24 24.18-3.79 1.82-.21 1.82-.21 3.82-1.21 3.65-.27 7.3-.44 10.96-.61 5.94-.29 5.94-.29 7.04-1.39 1.6-.14 3.2-.23 4.81-.31 6-.45 11.8-1.46 17.69-2.63.87-.17 1.74-.34 2.64-.51.41-.09.41-.09 2.51-.51.74-.16 1.48-.31 2.25-.46 2.21-.61 4.05-1.54 6.1-2.58 2.2-.46 4.41-.87 6.62-1.25 7.56-1.39 14.65-3.7 21.89-6.21 3.54-1.23 7.09-2.33 10.68-3.39 8.71-2.57 16.68-6.12 24.81-10.15.85-.39 1.7-.79 2.57-1.2 3.84-1.8 6.78-3.47 9.43-6.8.42-2.93.42-2.93.31-6.31l-.12-3.74c-.06-1.31-.13-2.61-.19-3.95-.05-1.34-.09-2.67-.14-4.01-.3-6.61-.59-12.16-3.86-17.99-6.53 3.79-13.03 7.59-19.46 11.54-6.45 3.69-12.58 6.26-19.79 8.08l-4.71 1.23c-.68.18-1.36.35-2.06.53-1.98.62-1.98.62-3.99 1.66-2.6 1.25-5.18 1.44-8.02 1.74-2.36.26-4.66.71-6.97 1.22 1-3 1-3 4.5-4.88 4.48-1.87 9.08-3.22 13.75-4.56 15.68-4.5 31.55-10.71 44.75-20.56 1.16-3.48 1.11-6.19 1.09-9.86v-2l-.03-6.33c-.01-1.43-.01-2.86-.01-4.29-.02-3.51-.03-7.01-.05-10.52-.68.41-1.35.81-2.04 1.23a1820 1820 0 0 1-5.36 3.24c-13.51 7.94-13.51 7.94-20.6 7.53 1.37-2.75 3.3-3.05 6.04-4.17 7.9-3.36 19.95-8.72 23.88-16.71 2.15-6.16 2.44-11.7 2.26-18.18 0-.48 0-.48-.04-2.91-.03-2.35-.08-4.69-.14-7.03-4.9 1.53-9.21 3.57-13.73 5.98-2.27 1.02-2.27 1.02-5.27 1.02v-2c2.12-1.17 4.24-2.34 6.37-3.5.3-.17.3-.17 1.83-1.01 4.57-2.49 4.57-2.49 6.8-2.49v-3h5c-3.23-5.83-6.51-11.45-10.51-16.78-11.15-14.87-18.93-32.31-26.49-49.22-.38-.79-.75-1.57-1.13-2.38-2.82-6.35-3.46-11.78-3.31-18.68-.01-.93-.02-1.86-.02-2.82.04-4.5.36-8.3 1.96-12.53 2.07-5.59 1.97-11.06 1.93-16.97l.06-3.21c0-10.75-2.68-19.5-9.99-27.47-.52-.59-1.03-1.17-1.57-1.77-4.46-4.94-9.37-9.12-14.63-13.18-2.3-1.99-2.3-1.99-3.3-4.99 2.38-.87 3.55-1.18 5.93-.21 12.83 8.68 24.85 20.94 29.07 36.21.51 3.44.69 6.84.81 10.31.04.93.07 1.87.11 2.82.19 6.56-.22 12.52-1.92 18.87-4.71 18.67-1.95 30.89 6.86 47.81 1.83 3.54 3.5 7.13 5.15 10.76 3.64 8.02 7.83 15.25 12.99 22.43l3.75 5.31c.56.8 1.12 1.6 1.7 2.42 2.04 3 3.81 6.08 5.55 9.27 4.09-1.53 6.22-4.42 8.75-7.81.21-.29.21-.29 1.31-1.73 14.19-19.08 14.19-19.08 13.79-25.95-1.04-3.06-2.55-5.09-4.54-7.63-3.44-4.57-6.25-9.16-8.89-14.23-1.34-2.49-2.81-4.79-4.36-7.15-8.46-13.99-13.94-31.34-10.81-47.57 2.2-8.65 7.47-15.65 13.75-21.93h3c.34 3.23.23 4.65-1.61 7.39-.36.4-.36.4-2.14 2.42-7.49 8.5-9.33 15.81-8.89 26.91 1.86 20.92 16.07 40.47 27.64 57.28 13.07-16.36 20.79-39.01 26-59 .2-.75.4-1.5.6-2.27 3.27-12.5 4.42-24.86 5.4-37.73l-22-5 1 4c.47 6.97-.87 12.74-4 19-3-1-3-1-4.25-2.75-.95-2.84-.57-4.41.12-7.31 2.37-11.98 2.37-11.98 1.13-16.94-2.38-2.39-4.89-3.74-8-5 .3.71.61 1.41.93 2.14 2.71 7.27 3.36 15.15 3.07 22.86-2.87-1.43-2.99-2.98-4-6-.57-2.47-1.09-4.95-1.57-7.44a512 512 0 0 0-.75-3.87q-.9-4.83-1.68-9.69c-.43-.1-.43-.1-2.6-.59-6.65-1.51-13.24-3.06-19.73-5.16-4.98-1.58-9.64-2.65-14.86-3.04-1.81-.21-1.81-.21-3.81-1.21-1.91-.37-3.83-.69-5.75-1-1.03-.16-2.06-.33-3.11-.5-1.04-.16-2.08-.33-3.14-.5-.91-.19-1.82-.37-2.75-.57-5.41-.72-10.82-.43-16.26-.3l-2.63.03c-.4.01-.4.01-2.4.05-1.96-.21-1.96-.21-3.96-2.21-2.62-.04-2.62-.04-5.89.24-1.16.1-2.33.2-3.53.3-.61.05-.61.05-3.71.34-1.23.1-2.46.2-3.73.31-3.05.26-6.1.53-9.14.81 2.33 9.59 5.3 18.59 12 26l-2 4h-4a68 68 0 0 1-5.19-6.31c-.97-1.29-1.94-2.57-2.91-3.85-.48-.65-.97-1.29-1.47-1.96-2.79-3.66-5.79-7.15-8.75-10.67-1.68-2.21-1.68-2.21-2.68-5.21h-23l-2 5c-.35.79-.69 1.58-1.04 2.39-1.71 4.04-3.14 7.66-3.53 12.05-.43 3.56-.43 3.56-1.75 5.62-1.68.94-1.68.94-3.75.94-1.93-1-1.93-1-3.37-3.06-.81-4.23.71-7.17 2.44-10.94.43-.98.87-1.95 1.32-2.96 1.21-2.69 2.44-5.37 3.68-8.04l-2.02-.06c-5.31-.17-10.62-.36-15.93-.6-1.01-.04-2.02-.09-3.06-.13-3.96-.28-7.82-.83-11.71-1.6-5.93-1.1-11.92-1.79-17.9-2.56-.92-.12-1.85-.24-2.8-.37-.83-.1-1.67-.21-2.53-.32-2.05-.36-2.05-.36-4.05-1.36-2.17-.2-4.33-.37-6.5-.5-6.28-.39-6.28-.39-8.5-1.5q-2.535-.405-5.07-.75c-6.81-1.09-13.24-3.02-19.83-5.02-4.32-1.31-8.68-2.42-13.06-3.47-2.96-.74-5.88-1.56-8.81-2.39-5.93-1.66-11.08-2.87-17.23-2.37-4.35 8.4-7.24 15.24-7.79 24.78-.21 2.22-.21 2.22-1.21 3.22-2.44.25-2.44.25-5 0-2.31-3.46-2.15-4.27-1.69-8.25.11-.98.22-1.96.34-2.96.11-.92.23-1.84.35-2.79.12-1.26.24-2.52.37-3.81 1.25-6.38 4.84-11.07 8.63-16.19l-1-2-3 5c-3.59-.67-7.1-1.53-10.63-2.46-6.18-1.62-12.14-2.98-18.55-3.36-1.82-.18-1.82-.18-3.82-1.18-2.11-.09-4.22-.11-6.32-.1-.63 0-.63 0-3.81.01l-4 .03c-1.34 0-2.68.01-4.02.01-3.28.01-6.57.03-9.85.05-2.17 5.29-2.3 9.95-2.27 15.57 0 .92 0 1.84-.01 2.78 0 1.94.01 3.88.02 5.82.01 2.92 0 5.85-.02 8.78 0 8.59.05 16.93 1.75 25.38.58 2.92.96 5.82 1.31 8.78.12 1 .24 2 .36 3.04.24 2.04.48 4.07.71 6.11 1.02 8.51 2.73 16.52 5.15 24.74.39 1.45.79 2.89 1.18 4.34.1.38.1.38.62 2.28.42 1.54.84 3.08 1.25 4.62 1.15 4.2 2.47 8.26 4.04 12.32 2.23 5.99 4.2 12.07 6.22 18.13.24.73.49 1.46.74 2.22 3.23 9.68 6.29 19.39 9.02 29.23 2.05 7.39 4.42 14.62 6.93 21.86.42 1.27.84 2.55 1.25 3.82 5.65 16.9 12.99 33.36 21.21 49.16 1.07 2.1 2.07 4.23 3.01 6.38 4.36 9.72 4.36 9.72 10.24 11.98 3.61 1.04 7.21 2.07 10.87 2.95 2.42.71 2.42.71 5.42 2.71 6.05 1.88 11.5 2.28 17.81 2.19h2.56c3.53-.03 6.25-.06 9.63-1.19 3.02-.24 6.05-.38 9.09-.52 3.33-.41 6.29-1.04 9.52-1.89 6.47-1.68 12.97-2.74 19.57-3.71 2.23-.34 4.45-.67 6.67-1.01.48-.07.48-.07 2.93-.44 2.22-.43 2.22-.43 3.22-1.43 1.98-.46 3.97-.91 5.96-1.34 12.24-2.65 24.13-5.81 36.04-9.66 2.22-.69 4.45-1.38 6.68-2.06l3.15-.97c2.19-.67 4.39-1.34 6.58-2 5.21-1.58 10.35-3.2 15.42-5.19 3.95-1.42 7.99-2.55 12.02-3.72 3.23-1.09 6.11-2.52 9.15-4.06q2.25-.75 4.56-1.38c9.4-2.71 18.39-6.46 27.19-10.7 2.25-.92 2.25-.92 5.25-.92v2c-6.46 3.42-13 6.25-19.84 8.81-2.8 1.05-5.58 2.17-8.35 3.31-3.99 1.61-8 2.85-12.13 4.04-3.06.96-6.01 2.1-9 3.28-5.47 2.15-10.97 3.94-16.61 5.57-3.07.99-3.07.99-6.42 2.45-4.04 1.7-8.05 2.86-12.28 3.98l-4.77 1.29c-.78.22-1.55.43-2.36.65-12.29 3.4-12.29 3.4-17.86 5.7-3.08 1.19-6.13 1.48-9.38 1.92l-1 1c-2 .46-4 .9-6 1.33-3.71.83-7.39 1.74-11.07 2.67-.66.17-1.32.33-2 .5-.65.17-1.3.33-1.97.5-.66.17-1.32.33-2 .5-1.9.48-3.79.99-5.68 1.5-6.59 1.64-13.35 2.53-20.06 3.59-.52.08-.52.08-3.16.51-.95.15-1.9.3-2.87.45-2.19.45-2.19.45-3.19 1.45-3.66.28-7.34.23-11 .25l-3.09.06c-6.61.04-11.78-.91-17.91-3.31-3.33-1-6.66-1.97-9.99-2.94-2.97-1.05-5.33-2.42-8.01-4.06-2.32-.69-2.32-.69-4-1 1.82 5.66 4.02 9.73 7.79 14.34 1.21 1.66 1.21 1.66 1.21 3.66h2c1.51 1.91 1.51 1.91 3.25 4.5 2.11 3.11 4.22 6.19 6.5 9.19 6.86 9.09 13.58 18.27 20 27.69 17.4 25.45 17.4 25.45 26.77 28.19 12.96 2.23 25.74 1.87 38.17-2.75 2.31-.82 4.62-1.47 6.98-2.12 5.29-1.58 9.98-3.82 14.83-6.45.83-.44 1.66-.89 2.51-1.34 5.15-2.8 10.03-5.78 14.74-9.27 2.49-1.82 5.06-3.45 7.68-5.08 4.79-3.01 9.35-6.24 13.89-9.61 2.46-1.79 4.96-3.5 7.49-5.2 5.59-3.88 10.67-8.32 15.79-12.79.55-.48 1.11-.96 1.68-1.45 1.21-1.07 2.42-2.14 3.63-3.22.31-.27.31-.27 1.89-1.66l1.71-1.53c1.49-1.1 1.49-1.1 3.49-1.1.11-.28.11-.28.68-1.69 1.33-2.33 2.87-3.88 4.77-5.74 7.49-7.64 12.19-16.09 16.67-25.68.78-1.68 1.58-3.35 2.38-5.01 2.38-5.01 4.19-9.92 5.68-15.26 1.29-4.13 3.02-8.07 4.73-12.05 2.21-5.21 2.21-5.21 1.09-8.57.99-.5.99-.5 6-3v3h-2l2 3c.57 4.02-.66 7.06-2.15 10.77-.89 2.33-1.6 4.65-2.29 7.04-6.16 20.96-17.31 42.32-34.56 56.19a677 677 0 0 0-4 3.56c-2.72 2.38-5.51 4.62-8.38 6.82-3.32 2.54-6.42 5.22-9.5 8.06-5.08 4.63-10.49 8.62-16.12 12.56-.79.56-1.58 1.12-2.39 1.7-15.24 10.8-30.28 20.2-47.61 27.3-.79.34-1.58.67-2.39 1.02-2.56.96-4.94 1.53-7.63 2.02-.92.16-1.84.33-2.79.51-.95.17-1.9.34-2.88.51-1.9.34-3.8.69-5.7 1.04-.84.15-1.68.3-2.54.45-2.07.45-2.07.45-4.07 1.45-8.1.75-15.26-.78-23-3-1.34-.34-2.67-.67-4-1-.06 1.09-.12 2.17-.19 3.29-.08 1.44-.17 2.89-.25 4.33l-.12 2.17c-.19 3.1-.42 6.08-.96 9.15-.53 3.33-.61 6.53-.67 9.89-.22 9.22-1.52 17.02-4.66 25.69-1.2 3.62-2.05 6.66-2.15 10.48 3.88 6.55 11.93 11.36 19.18 13.44.93.18 1.86.37 2.82.56v1c-7.21.75-11.35-.54-17-5-.82-.63-1.63-1.26-2.47-1.9-6.24-5.14-6.24-5.14-7.37-8.86-.2-3.88.36-7.4 1.15-11.18.13-.67.26-1.35.4-2.05.87-4.41 2-8.7 3.29-13.01.21-.73.41-1.46.63-2.21.45-1.6.91-3.19 1.37-4.79-7.77 2.44-14.18 6.67-21 11-.45.25-.45.25-2.69 1.53-3.87 2.46-6.42 5.96-9.31 9.47-.68.8-1.36 1.6-2.05 2.43-6.37 7.69-11.4 14.39-11.95 24.57h-3c-.55-6.33 1.06-11.38 4-17 .99-1.01 1.98-2.01 3-3l1-3c-9.19 2.56-18.26 5.18-27 9-1.87.64-3.75 1.26-5.63 1.88-4.3 1.4-8.53 2.92-12.75 4.56-1.08.41-2.15.83-3.26 1.26-2.31.89-4.61 1.8-6.91 2.73-7.4 2.86-13.52 4.3-21.45 3.57 2.23-2.23 3.25-2.48 6.25-3.25 6.85-1.95 13.23-4.9 19.75-7.75 6.53-2.79 13.12-5.02 19.93-7.05 2.62-.81 5.15-1.7 7.69-2.7 3.38-1.25 3.38-1.25 6.38-1.25v-2c.4-.07.4-.07 2.42-.45 10.11-2.06 19.21-5.09 26.76-12.36 5.75-5.49 12.83-8.73 19.88-12.23 1.79-.89 3.56-1.8 5.33-2.72 2.61-1.24 2.61-1.24 4.61-1.24.06-.83.12-1.66.18-2.52.08-1.09.17-2.17.25-3.29.09-1.08.17-2.16.25-3.27.32-2.92.32-2.92 1.32-5.92.22-1.98.4-3.96.56-5.94.08-1.04.17-2.08.25-3.15.15-2.3.19-4.61.19-6.91-1.66-1.72-1.66-1.72-3.94-3.5-5.68-4.78-10.02-10.29-14.06-16.5v-2h-2c-1.53-1.91-1.53-1.91-3.3-4.57l-1.97-2.91-2.05-3.08c-1.32-1.98-2.65-3.96-3.98-5.94-.64-.95-1.27-1.89-1.92-2.87-1.54-2.28-3.13-4.5-4.76-6.72-2.02-2.91-2.02-2.91-2.02-4.91h-2c-1.21-1.43-1.21-1.43-2.54-3.45-.5-.74-.99-1.48-1.5-2.24-.26-.4-.26-.4-1.59-2.43l-1.63-2.48c-8.79-13.49-16.09-27.59-22.85-42.19-1.78-3.84-3.59-7.67-5.42-11.48l-1.33-2.78c-.86-1.79-1.73-3.58-2.59-5.37-3.95-8.23-7.32-16.58-10.12-25.27-1.19-3.71-2.42-7.28-3.97-10.86-1.4-3.3-2.41-6.49-3.34-9.95-1.57-5.65-3.32-11.21-5.2-16.77-1.49-4.39-2.88-8.8-4.24-13.23-2.06-6.72-4.35-13.36-6.68-20-4.24-12.08-8.4-24.15-11.23-36.66-.63-2.31-1.36-4.4-2.23-6.61-1.68-4.38-2.68-8.76-3.54-13.35-.17-.88-.34-1.75-.51-2.65-2.33-12.96-3.35-26.13-4.49-39.23-.99 1.43-1.97 2.86-2.95 4.3-.27.4-.27.4-1.66 2.41-1.95 3.2-2.27 5.54-2.39 9.29-.06.91-.12 1.82-.19 2.76-.38 9.31 1.72 17.37 4.19 26.24 5.04 18.82 3.49 35.4-6 52.5-1 1.83-2 3.67-3 5.5-.21.36-.21.36-1.28 2.18-4.74 9.46-4.04 22.29-1.99 32.45 1.77 5.31 3.95 8.73 8.27 12.37 7.44 6.48 11.53 12.77 15 22 .24.64.48 1.29.73 1.95 4.72 12.83 6.15 22.96.78 35.89-1.47 3.07-3.13 5.93-4.89 8.85-2.61 4.62-3.31 7.92-2.36 13.16 1.16 3.38 2.95 4.97 5.74 7.15 1.27 1.1 2.54 2.2 3.81 3.31 1.06.9 2.12 1.8 3.19 2.69l-1 3c-6.62-3.13-12.72-7.3-16-14-1.47-4.3-1.57-7.56.11-11.82 1.57-3.1 3.21-6.14 4.89-9.18 5.76-11.19 6.78-20.8 3.15-32.89-3.44-10.47-7.22-18.75-15.72-26.05-6.91-6.02-10.23-12.32-11.25-21.44-.08-1.87-.14-3.74-.18-5.62-.09-1.01-.17-2.02-.26-3.05-.7-12.48 4.99-22.55 10.51-33.33 7.4-14.57 7.82-30.07 2.75-45.62-.76-2.3-1.53-4.59-2.36-6.87-5.19-17.07-.21-32.94 7.71-48.05.54-1.02 1.09-2.03 1.65-3.08h2v-13c-9.25 2.05-20.1 5.1-27 12-.4 5.55.35 9.44 2.26 14.61 1.25 4.05 1.48 8.18 1.74 12.39l-4 1c-7.01-8.72-7.57-18.17-7-29l-2.28.03q-5.145.06-10.29.09l-3.58.06c-6.01.03-11.2-.07-16.85-2.18.16-.66.16-.66 1-4h32c.64-2.64 1.28-5.28 1.93-8 .2-.81.4-1.63.61-2.47.87-3.63 1.59-7.21 2.03-10.93.43-3.6.43-3.6 1.3-6.22.2-3.82-2.45-5.61-4.87-8.38-1.2-2.67-1.28-4.09-.44-6.88 2.92-6.88 8.62-11.27 15.44-14.12h4c-1.68 3.96-4.14 6.84-7 10h-2c-.29.6-.58 1.2-.88 1.81-1.12 2.19-1.12 2.19-3.12 5.19a96 96 0 0 0 0 7c.8.18 1.61.36 2.45.55 1.06.25 2.13.5 3.23.76 1.06.25 2.12.49 3.2.74 3.11.95 5.4 2.21 8.12 3.95 3.87 1.53 6.86 2.09 11 2 .13-.42.13-.42.84-2.55l1.09-3.33 1.09-3.3c.98-2.82.98-2.82 1.98-4.82h4c-.89 6.57-.89 6.57-1.63 9.31-.37 1.69-.37 1.69.63 3.69 3.63 1.37 7.48 1.19 11.32 1.28l2.12.06c2.98.08 5.97.14 8.95.21 2.19.05 4.37.11 6.55.17l3.96.09c3.1.19 3.1.19 5.1 1.19 2.33.32 4.66.61 7 .88 16.54 2.06 16.54 2.06 21 7.12 7.91-10.62 7.91-10.62 10.31-15.06 1.69-2.94 1.69-2.94 4.69-4.94 1.91-.5 3.83-.99 5.76-1.43 2.28-.58 4.41-1.36 6.61-2.19 8.61-2.87 17.47-1.14 26.31-.17 17.51 1.94 34.3 3.48 51.17-2.55 3.35-1.03 6.65-1.34 10.15-1.66l-1-2c-2.05-.63-4.11-1.18-6.19-1.69-6.75-1.82-12.51-4.43-18.66-7.72-3.01-1.52-5.96-2.55-9.15-3.59-.83-.58-1.65-1.15-2.5-1.75-2.5-1.25-2.5-1.25-5.01-.63-4.72 1.87-9.29 4-13.87 6.19-.91.43-1.81.85-2.75 1.29-4.25 2.03-8.28 4.1-12.19 6.7-3.17 2.05-5.34 2.78-9.18 2.51-.86-.04-1.72-.09-2.6-.13l-1.9-.18v-4c6.86-3.87 6.86-3.87 9.65-5.43 3.11-1.75 6.22-3.5 9.31-5.28.77-.45 1.55-.89 2.35-1.35.65-.39 1.31-.77 1.99-1.16 1.7-.78 1.7-.78 4.7-.78v-2c1.87-.7 3.75-1.39 5.63-2.08 2.37-.92 2.37-.92 4.39-1.9 8.45-3.96 17.7-4.61 26.87-5.69 2.11-.33 2.11-.33 5.11-1.33 2.2-.18 4.41-.32 6.62-.44 11.35-.78 20.16-3.91 30.53-8.52 10.2-4.24 24.16-4.44 34.85-2.04 2.43 1.56 2.43 1.56 4 3 .69-.44 1.38-.89 2.09-1.34 4.07-2.32 8.36-3.78 12.75-5.38 3.16-1.28 3.16-1.28 5.86-2.92 2.9-1.72 4.98-1.59 8.3-1.36-.21 3.66-.84 4.84-3.54 7.41-3.63 2.9-7.59 4.86-11.78 6.84-7.6 3.66-7.6 3.66-8.68 4.75-2.34.04-4.67.04-7 0l-1-2c-1.71.09-1.71.09-4 1a79 79 0 0 0-4.75 6.56c-.41.62-.83 1.23-1.25 1.87-1.01 1.52-2.01 3.04-3 4.57l2 1c1.33-.66 2.67-1.33 4-2 2.58-.77 5.14-1.47 7.75-2.12.67-.19 1.35-.37 2.05-.56 5.09-1.28 11.31-2.76 16.2-.32-.23-.37-.23-.37-1.38-2.25a88 88 0 0 1-3.62-6.75c1.62-.81 1.62-.81 4-1 5.66 4 5.66 4 7 8l3.68.12c.69.03 1.37.05 2.08.08 2.7-.24 4.73-1.17 7.24-2.2 8.99-2.13 18.06-2.18 27.25-2.19h3.39c8.09.06 8.09.06 10.36 1.19q3 .06 6 0c2.81-4.74 3.41-8.6 3.25-14-.01-.69-.01-1.37-.02-2.08-.06-4.06-.46-7.93-1.23-11.92l4-2c3 2 3 2 3.98 5.12 1.95 9.85 3.43 18.8-1.62 27.95-2.11 2.99-4.69 5.41-7.35 7.93-3.06 3.04-5.47 6.52-8.01 10-4.42 5.92-9.63 10.23-16 14h-2l1 2c2.11.64 2.11.64 4.87 1.25 6.31 1.62 14.92 4.05 18.43 9.94.23.6.46 1.2.7 1.81-11.28 1.08-18.66-.49-28.48-6.15-3.36-1.76-5.75-2.68-9.52-2.85l-2 2c-1.97.23-1.97.23-4.36.2-.85-.01-1.7-.02-2.57-.02l-2.7-.06c-.9 0-1.79-.01-2.72-.02-2.22-.03-4.43-.06-6.65-.1v-4c1.58-.68 3.16-1.34 4.75-2 .88-.37 1.76-.74 2.67-1.12 2.58-.88 2.58-.88 6.58-.88-2.14-2.3-4.14-4.09-6.78-5.79-3.42-2.35-6.2-4.89-9.1-7.83-.5-.49-.99-.98-1.51-1.49-3.61-3.64-3.61-3.64-3.61-5.89-14.18 1.16-27.88 4.42-41.15 9.58-3.78 1.45-7.59 2.36-11.54 3.23-6.4 1.5-11.91 3.75-17.82 6.67-4.89 2.12-9.9 3.46-15.05 4.78-3.67.95-7.2 1.98-10.74 3.35-3.62 1.36-6.88 1.92-10.7 2.39l-1 1c-10.34 1.54-20.74 1.12-31.13.56l-2.3-.12c-5.45-.32-5.45-.32-6.57-1.44a68 68 0 0 0-4-.5c-3.89-.39-3.89-.39-5-1.5-4.15-.75-7.88-.92-12 0-2.39 2.29-3.82 4.53-5.41 7.42-1.81 2.93-3.82 4.57-6.59 6.58 6.92 2.05 13.81 4.01 20.87 5.56 3.66.81 7.09 1.72 10.56 3.13 3.59 1.32 5.81 1.99 9.57 1.31 2.25-2.5 2.25-2.5 4-5h2c1.35 4.05.62 6.79 0 11 5.31 2.22 5.31 2.22 8.68 1.12.77-.37 1.53-.74 2.32-1.12h3c-2.11-6.15-4.21-10.88-8.93-15.43-1.07-1.57-1.07-1.57-.93-3.7.28-.62.57-1.24.86-1.87 3-1 3-1 5.25-.12 3.34 2.58 5.59 5.52 8.09 8.91 1.66 2.21 1.66 2.21 4.16 4.96 1.5 2.25 1.5 2.25 1.25 5.06q-.375 1.08-.75 2.19l-7 1c6.86 1.7 13.6 2.34 20.64 2.66 5.16.24 5.16.24 7.36 1.34 2.81.27 5.62.5 8.44.68 1.74.13 3.47.25 5.2.38 2.74.19 5.47.38 8.2.56 2.64.18 5.28.37 7.91.56.81.06 1.62.11 2.45.16 5.13.38 9.83 1.28 14.8 2.66l7-8c-1.03-2.99-2.04-5.04-4.07-7.5-2.03-2.62-2.56-4.25-2.93-7.5 1.77-.68 1.77-.68 4-1 1.88 1.14 1.88 1.14 3.68 2.81l1.83 1.65c1.49 1.54 1.49 1.54 2.49 3.54 3.87-1.61 6.47-4.14 9.5-7 7.4-7 7.4-7 12.5-7v-2c-.81.06-1.61.12-2.44.19-5.35-.28-10.28-1.77-14.84-4.61-3.46-2.01-7.01-3.28-10.79-4.58-.74-.26-1.49-.52-2.25-.79-6.14-2.11-12.34-3.82-18.68-5.21v-4c6.46-3.71 13.6-2.73 20.56-.87 4.29 1.25 8.54 2.62 12.78 4.01 2.68.87 5.37 1.68 8.06 2.49l5.16 1.56q1.2.345 2.43.72c3.76 1.16 6.48 2.03 9.01 5.09.48 3.06.27 4.53-1.29 7.21-1.88 2.29-3.76 4.56-5.71 6.79-.57.65-1.13 1.29-1.71 1.96-4.19 4.5-8.8 7.34-14.29 10.04 1.18 2.55 2.1 4.11 4.12 6.12 1.88 1.88 1.88 1.88 1.88 3.88 2.82-.38 5.53-.85 8.25-1.73 5.94-1.93 11.41-2.57 17.62-2.58.73-.01 1.45-.01 2.2-.02 4.07.05 7.27.53 10.93 2.33-.02-1-.03-2-.04-3.03 0-.64 0-.64-.03-3.91l-.03-3.9c.1-3.16.1-3.16 1.1-4.16 2.76-.29 4.37-.44 6.68 1.19 1.83 2.51 1.44 3.97 1 7l-.36 2.73c-.11.69-.21 1.37-.32 2.08.63-.01 1.27-.02 1.93-.04.83 0 1.65-.01 2.5-.02.83-.01 1.65-.03 2.5-.04 2.07.1 2.07.1 3.07 1.1 3.07.48 6.13.91 9.22 1.3 1.92.26 3.84.52 5.76.77 3.03.41 6.06.8 9.1 1.2 2.92.37 5.84.77 8.76 1.16.9.11 1.8.22 2.72.34 7.62 1.04 14.07 3.39 20.94 6.92.85.43 1.71.87 2.59 1.32.63.33 1.26.65 1.91.99-2.45-6.35-7.12-10.4-12-15l2-4c3.71-.2 4.77-.15 8 2v2l3 1v2h2c1.58 1.61 1.58 1.61 3.37 3.75 1.96 2.32 3.89 4.5 6.06 6.63 1.57 1.62 1.57 1.62 1.57 3.62 8.05 1.06 12.61-2.37 19-7 .75-.53 1.51-1.05 2.29-1.59 1.71-1.41 1.71-1.41 2.21-3.6-.6-3.34-1.89-5.83-3.48-8.81-1.32-2.58-2.19-5.23-3.02-8l-3 1c-1.36.1-2.72.16-4.09.18-.4 0-.4 0-2.48.04-.88 0-1.76.01-2.68.02s-1.83.01-2.78.02c-1.95.02-3.91.03-5.86.04-1.97.01-3.95.03-5.93.06-11.42.17-21.48.12-32.18-4.36-.39-1.99-.72-3.99-1-6 1.99-2 5.81-1.41 8.56-1.56.71-.05 1.42-.09 2.15-.13 1.76-.11 3.53-.21 5.29-.31v-3l-2.02.18c-4.32.22-7.21.22-11.11-1.8-3.05-5.49-2.25-11.25-1.87-17.38 1.87-1.06 1.87-1.06 4-2l2 1c.39 2.58.5 5.14.65 7.75.12.74.23 1.49.35 2.25 5.85 2.93 16.28 1.51 22.43-.12 4.22-1.47 7.47-3.72 10.87-6.58 1.7-1.3 1.7-1.3 4.7-2.3l-1-5c-4.46-1.64-8.66-2.49-13.38-3.06-.34-.05-.34-.05-2.09-.26-4.29-.5-8.55-.8-12.86-.97-6.93-.29-13.77-.72-19.67-4.71-1.26-2.14-1.26-2.14-2-4 1.92-2.01 3.41-2.94 6.2-3.23 6.25-.04 6.25-.04 8.8 1.23 1.51.14 3.02.23 4.54.28.45.02.45.02 2.76.11.95.04 1.9.07 2.88.11 6.01.22 11.88.52 17.82 1.5-.58-4.75-2.7-8.43-5.07-12.5-.4-.7-.8-1.4-1.21-2.13a545 545 0 0 0-11.72-19.37c-.49-.77-.98-1.55-1.48-2.35-6.36-9.8-13.7-18.98-21.52-27.65-.35-.4-.35-.4-2.08-2.43-12.99-14.96-29.13-23.55-46.92-31.57-.96-.44-1.91-.87-2.89-1.32-5.62-2.42-11.42-3.83-17.36-5.25-4.08-.98-7.9-2.14-11.77-3.71-7.46-2.72-15.12-3.95-22.98-4.72l-1-1c-2-.21-4-.37-6-.5-5.89-.39-5.89-.39-7-1.5-1.68-.1-3.36-.13-5.04-.13-1.08 0-2.15-.01-3.26-.01-1.17 0-2.34.01-3.54.01s-2.39 0-3.62-.01c-2.52 0-5.05.01-7.58.01-3.88 0-7.76 0-11.64-.01-2.45 0-4.9.01-7.35.01-.58 0-.58 0-3.54-.01-.54 0-.54 0-3.27.01h-2.88c-2.28.13-2.28.13-4.28 1.13-2.86.31-5.71.51-8.57.72-2.43.28-2.43.28-3.43 1.28-.97.1-1.94.21-2.94.31-4.06.54-7.52 1.95-11.28 3.53-2.96 1.23-5.96 2.32-8.97 3.41-6.96 2.66-13.42 6.07-19.91 9.69-1.34.75-2.69 1.48-4.05 2.21-5.5 2.97-10.61 6.3-15.67 9.97-.78.57-1.55 1.14-2.36 1.72-12.47 9.19-22.56 19.83-32.03 32.06-1.79 2.1-1.79 2.1-4.79 4.1v2c.31-.04.31-.04 1.87-.22 14.24-1.56 26.42-1.07 38.13 8.22l1 1c3.01-.29 6-.63 9-1 6.37-.75 12.57-1.1 19-1v3c-3.55 2.75-6.33 3.36-10.75 3.5-6.13.37-12.74.99-17.25 5.5-2.32.06-2.32.06-5-1-.76-1.14-1.47-2.32-2.15-3.51-2.24-3.25-2.6-3.43-6.74-4.35-1.51-.02-3.01-.01-4.52.04h-2.43c-1.69.01-3.38.03-5.07.07-2.59.06-5.16.06-7.75.06-1.64.01-3.29.03-4.94.05-.77 0-1.53.01-2.32.01-6.24.19-8.85 2.33-13.03 6.63-.58.66-1.15 1.32-1.74 2-.58.66-1.16 1.32-1.76 2-1.5 1.93-2.55 3.78-3.55 6 2.77 3.39 6.57 4.91 10.43 6.75 5.22 2.56 10.41 5.14 15.5 7.94.96.52 1.92 1.04 2.91 1.57 2.16 1.74 2.16 1.74 2.97 4.45.06.75.12 1.51.19 2.29 1.87-.12 1.87-.12 4-1 .72-1.98 1.37-3.99 2-6 5.34-10.29 13.82-20.1 25-24 2.9-.44 5.74-.68 8.68-.82 2.32-.18 2.32-.18 4.32-1.18 6.53-.72 11.95.6 18 3v5c-4.83 2.54-9.4 2.19-14.69 2.06l-5.14-.09c-.75-.02-1.51-.03-2.28-.05-1.89.08-1.89.08-3.89 1.08-2.34.04-4.67.04-7 0v2c-.68.54-1.36 1.07-2.07 1.62-3.8 3.08-6.76 6.68-9.93 10.38-2.25 2.5-2.25 2.5-4 4h-3l1 3c1.85.66 1.85.66 4.18 1.06 2.69.51 5.1 1.04 7.69 1.94 4.62 1.48 9.35 2.2 14.13 3l1 5c-2 1.99-3.62 3.56-6 5-2.75 0-4.41-.3-7-1l-3.3-.72c-9.5-2.07-9.5-2.07-10.7-3.28-8.99-.65-17.1-.92-25 4v3c.79.14 1.58.27 2.4.41 3.59.62 7.19 1.26 10.78 1.9 1.25.22 2.5.43 3.78.65.6.11.6.11 3.64.65 1.11.2 2.21.39 3.35.59 3.13.82 5.37 2 8.05 3.8-.88 4.88-.88 4.88-2 6-1.86.17-1.86.17-4.19.19-.76.01-1.51.03-2.29.04-3.07-.28-5.6-1.25-8.52-2.23-3.28-.77-6.58-1.42-9.88-2.06-.86-.18-1.72-.35-2.6-.53-3.97-.78-7.89-1.48-11.9-1.92-3.08-.42-5.02-.83-7.69-2.3l-1.99-1.08c-.64-.37-1.28-.73-1.94-1.11-.61-.35-1.22-.69-1.85-1.05-1.72-.98-3.44-1.96-5.15-2.95-1.08-.52-2.15-1.03-3.25-1.56-2.75-1.44-2.75-1.44-4.08-2.87-2.19-2.06-4.48-2.96-7.24-4.13-5.23-2.23-5.23-2.23-7.43-4.44.2-6.15 1.68-9.86 5-15l4 2v4h3c.12-.35.12-.35.75-2.12 3.47-7.99 3.47-7.99 7.25-9.88-.09-2.9-.55-4.55-2.63-6.6-1.27-1.04-2.57-2.07-3.88-3.07-.49-.44-.99-.88-1.49-1.33v-2c-2.17-.43-2.17-.43-5 0-1.96 2.28-3.62 4.48-5.32 6.94-4.31 5.82-8.55 9.89-14.93 13.37-.65.36-1.3.71-1.97 1.07-8.8 4.48-17.36 5.03-27.1 5.37-1.18.06-2.35.11-3.57.17-.56.02-.56.02-3.41.13l-3.1.12c-2.6-.17-2.6-.17-5.6-2.17l1-4c1.15-.07 2.3-.14 3.48-.21 4.29-.27 8.57-.56 12.85-.85 1.85-.13 3.7-.24 5.55-.36 2.67-.16 5.33-.34 8-.53.82-.05 1.64-.09 2.49-.14 6.08-.46 9.86-2.27 14.35-6.55 3.05-3.66 5.65-7.42 8.12-11.49 1.54-2.49 3.15-4.73 5.16-6.87h3c-.26-.94-.51-1.89-.77-2.86-.72-2.68-1.44-5.36-2.14-8.04-.66-2.48-1.33-4.95-2.03-7.42-1.73-6.36-2.46-12.08-2.06-18.68h5c.02.45.02.45.11 2.71.53 9.67 1.55 18.05 6.89 26.29.68 2.31.68 2.31 1 4 6.31-.36 11.17-2.19 16.94-4.72 4.27-1.79 8.6-3.04 13.06-4.28v-15l4 2c.75 2.62.75 2.62 1 5h3c1.98-2.09 1.98-2.09 4.18-4.94 3.02-3.81 6.06-7.58 9.25-11.25.64-.73 1.28-1.47 1.94-2.23 1.63-1.58 1.63-1.58 3.63-1.58l1-3c1.51-1.42 1.51-1.42 3.46-2.89.71-.54 1.43-1.08 2.16-1.64.76-.57 1.53-1.14 2.31-1.72.39-.29.39-.29 2.35-1.77 15.25-11.42 15.25-11.42 23.17-15.62 1.87-1 3.73-2.05 5.57-3.13 48.45-27.95 103.85-24.31 156.01-10.73M293.004 489v2c5.67.45 8.59-.35 13-4v-2c-5.12-.64-8.68 1.59-13 4m208 10c-1.71.16-3.42.27-5.13.38-4.35.36-7.86 1.13-11.87 2.8-13.02 5.35-27.11 6.08-41 6.82v2c8.81 4.21 17.6 8.38 26.68 11.99 2.32 1.01 2.32 1.01 5.32 3.01 4.37-.2 7.12-1.62 10.79-3.88 3.94-2 8.19-3.07 12.41-4.29 2.8-.83 2.8-.83 4.8-1.83l1.18-3.06c1.64-4.12 4.27-6.95 7.29-10.14 1.53-1.8 1.53-1.8 2.53-4.8-1.8-.03-3.59-.05-5.38-.06-.5-.01-.5-.01-3.02-.04-2.6.1-2.6.1-4.6 1.1m-201 9c-1.25 1.33-1.25 1.33-2.45 3.18-.44.66-.87 1.32-1.32 2.01-.45.7-.9 1.4-1.36 2.12-.45.69-.91 1.38-1.38 2.09-1.87 2.89-3.4 5.32-4.49 8.6.96.54 1.92 1.09 2.92 1.64 1.27.73 2.55 1.45 3.83 2.17.63.36 1.26.72 1.92 1.08 2.67 1.52 5.2 3.01 7.65 4.87 1.68 1.24 1.68 1.24 3.74 1.3 1.94-1.06 1.94-1.06 3.31-3.94 2.07-3.97 3.42-4.67 7.63-6.12 2.5-.35 4.99-.57 7.52-.75 3.34-.34 6.29-1.21 9.48-2.25-3-2-5.37-2.57-8.82-3.38-3.65-1.03-6.9-2.75-10.25-4.5-.66-.33-1.33-.67-2.02-1.02-3.31-1.69-6.53-3.46-9.72-5.36-3.19-1.74-3.19-1.74-6.19-1.74m256 7c0 4 0 4 1.43 5.71 13.26 11.01 13.26 11.01 18.04 11.59 4.66-.55 8.45-3.1 12.53-5.3.78-.38 1.56-.77 2.36-1.16 5.77-2.94 10.67-6.67 14.64-11.84v-3c-16.84-2.14-32.51.81-49 4m114 14 2 2v-2zm-6.57 13.44c-.67.54-1.34 1.07-2.03 1.63-.79.63-1.59 1.27-2.4 1.93-2.17 1.63-4.33 3.26-6.5 4.88-1.05.78-2.09 1.56-3.16 2.36-.77.58-1.55 1.16-2.34 1.76l1 3c3.33.03 6.66.05 10 .06l2.83.03c5.49.02 10.73-.28 16.17-1.09-.54-6.18-2.55-11.33-5-17-3.79-.25-5.63.02-8.57 2.44M257.004 551c-.21.92-.41 1.83-.62 2.77l-.82 3.61c-.27 1.18-.53 2.36-.81 3.58-.75 3.04-.75 3.04-1.75 5.04-.04 2-.05 4 0 6 4.88-1.47 9.2-3.49 13.68-5.88.67-.33 1.33-.67 2.01-1.02 3.61-1.91 6.19-3.57 8.31-7.1-4.07-1.77-8.15-3.5-12.25-5.19-.83-.34-1.66-.69-2.52-1.04-2.23-.77-2.23-.77-5.23-.77m429 15c.67 4.19 2.85 7.4 5 11 1.81-.12 1.81-.12 4-1 3.12-4.85 3.12-4.85 2.75-8.31-.75-1.69-.75-1.69-1.75-2.69-3.49-.19-6.61.22-10 1m18 3c-.27.53-.53 1.06-.81 1.61-1.73 3.46-3.46 6.93-5.19 10.39 1.75-.12 1.75-.12 4-1 2.45-3 3.91-4.98 4.25-8.88-.04-.35-.04-.35-.25-2.12zm-191 13v4h5l-1-4zm21 11 1 3 1-3zm147.28 3.55c-4.69 2.97-10.07 4.61-15.28 6.45v3c5.12 3.04 10.04 4.64 15.87 5.81.33.07.33.07 2.02.41 4.84.91 4.84.91 7.11-.22-.17-3.13-.17-3.13-1-19-4.48 0-5.33.95-8.72 3.55m15.72 28.45c-.64 1.95-.64 1.95-1.13 4.12-.29 1.28-.58 2.56-.87 3.88 3.06-.6 5.02-1.54 7.5-3.44 2.41-1.8 4.72-3.34 7.5-4.56l-1-2c-1.63-.05-3.25-.09-4.88-.12-.9-.03-1.81-.05-2.74-.08-2.38.2-2.38.2-4.38 2.2m-40 105c-.35.55-.35.55-2.09 3.33-13.1 20.69-13.1 20.69-20.23 26.59-1.68 2.08-1.68 2.08-1.64 4.95 1.05 3.43 2.49 6.12 4.33 9.19 11.7 21.03 9.09 48.45 3.63 70.94h-2l.93-6.69c.09-.62.09-.62.53-3.76.3-1.97.62-3.93 1.06-5.87.98-5.49.7-11.12.73-16.68l.06-3.79c.05-11.93-1.77-22.5-7.5-33.02-.37-.71-.74-1.41-1.12-2.14-.88-1.69-1.79-3.37-2.69-5.05h-1c-.02.69-.03 1.37-.05 2.08-.07 3.14-.17 6.28-.27 9.42l-.06 3.27c-.22 6.48-1.19 11.25-3.62 17.23-.33 3.3-.33 3.3-.25 6.31.01 1.01.03 2.02.04 3.05.21 2.64.21 2.64 1.21 5.64q.135 2.25.12 4.5c0 .77.01 1.55.01 2.34-.13 2.16-.13 2.16-1.13 5.16-.15 2.64-.23 5.24-.25 7.88-.01.35-.01.35-.07 2.14-.02 3.27-.01 5.48 1.81 8.27 1.94 3.48 1.92 6.04 1.99 10.02l.15 4.26c.06 2.22.12 4.44.15 6.66.21 12.48.21 12.48 2.85 15.88 1.94 1.39 1.94 1.39 5.37 2.89 6.1-5.71 14.26-13.62 15.27-22.36l.03-2.6c.03-.95.06-1.89.08-2.87.04-1.98.07-3.95.09-5.93.27-9.59 3.23-15.14 8.81-22.91 5.51-10.68 5.17-22.07 5.03-33.77-.01-.84-.01-1.68-.02-2.55-.13-18.79-1.43-36.57-5.98-54.86-.18-.73-.36-1.46-.55-2.21-.87-2.22-1.98-3.38-3.76-4.94m126 131c0 4 0 4 2 6.31.99.91 1.99 1.8 3 2.69.62.57 1.25 1.14 1.9 1.73 10.18 9.15 10.18 9.15 15.97 9.52.52-.04.52-.04 3.13-.25v-4c-1.24-.31-2.48-.62-3.75-.94-8.07-2.66-15.23-8.29-20.25-15.06z"/><path d="m562 551 1 1c1.98.21 3.96.37 5.94.5 5.84.39 5.84.39 8.06 1.5 2.1.27 4.22.49 6.33.68 1.27.13 2.55.25 3.86.38 2.03.19 4.05.38 6.08.56 1.96.18 3.91.37 5.87.56 1.17.11 2.34.22 3.55.33 8 1.18 8 1.18 10.31 3.49.04 1.67.04 3.33 0 5-13.02 6.51-37.35.69-51-3-1.27-.34-2.54-.68-3.86-1.03-3.09-.95-5.46-2.18-8.14-3.97.34-2.52.57-3.67 2.62-5.25 3.21-1.01 6.05-.94 9.38-.75m-23 99c2.48 1.71 4.34 3.22 6.44 5.31.56.54 1.12 1.08 1.69 1.64 6.01 5.92 12.46 12.8 14.87 21.05-.16 3.04-.45 4.45-2.61 6.62-9.2 5.91-19.04 9.23-29.64 11.7-2.41.6-4.71 1.3-7.06 2.12-6.45 2.23-13.09 3.85-19.69 5.56-.99.27-1.98.54-3 .82-6.58 1.74-13.16 2.95-19.89 3.91-4.7.72-9.18 1.82-13.75 3.11-10.26 2.85-20.75 4.46-31.24 6.22-2 .34-4 .69-6.01 1.03l-11.67 1.98c-6.27 1.07-12.55 2.18-18.81 3.31-6.19 1.06-12.4 1.87-18.63 2.62-.33.04-.33.04-2.02.26-10.76 1.39-21.51 2.03-32.36 2.43-1.24.05-2.49.09-3.77.14-17.8.56-17.8.56-23.85-.83-2.29-2.47-3.11-4.79-4-8-.31-.73-.63-1.46-.95-2.22-1.42-3.77-2.25-7.6-3.11-11.53-.18-.76-.35-1.52-.53-2.3-1.17-5.31-1.98-10.53-2.41-15.95 1.7-1.7 3.91-1.27 6.24-1.39.56-.04.56-.04 3.39-.21 1.21-.07 2.43-.14 3.68-.21 10.52-.68 20.88-1.74 31.31-3.25 1.21-.18 2.42-.35 3.67-.53 8.42-1.26 8.42-1.26 10.71-2.41 2.12-.31 4.25-.57 6.38-.81 16.36-1.95 32.76-4.01 48.87-7.48 4.85-.92 9.73-1.53 14.63-2.15 7.65-.98 15.06-2.33 22.55-4.22 4.17-1.04 8.17-1.72 12.45-2.07 2.53-.32 4.9-.93 7.37-1.58 7.46-1.96 15.02-3.32 22.6-4.73 17.39-3.23 17.39-3.23 24.33-5.75.77-.28 1.53-.55 2.32-.83.69-.27 1.38-.53 2.09-.79 3.37-.82 5.95-.99 9.41-.59m-19 24c.33.5.33.5 2 3v-3zm-23 11 4 1Zm-50 1-1 2h9l-1-2zm-9.82 2.52c-3.52.78-7.03.44-10.62.32C424 689 424 689 421 691c-2.23.27-2.23.27-4.75.38-5.07.39-8.06 1.8-12.25 4.62v1h11v2c-4.33 1.58-8.43 2.45-13 3 4.49 2.99 7.68 3.2 13 3l1-1c1.73-.19 3.46-.32 5.19-.44 4.26-.34 7.77-1.12 11.81-2.56 1.43-.22 2.87-.4 4.31-.56C441 700 441 700 442 699c2.65-.45 5.32-.7 8-1l1-3h-9v2l-3-2c-1.34.3-2.67.64-4 1-2.67.1-5.32.04-8 0l-1-3c.89.06 1.77.12 2.69.19 5.9.03 11.62-1.75 17.31-3.19-2-2-2-2-4.38-2.19-2.62.19-2.62.19-4.44.71M452 693v2h5l1-2zm-58 4c-2.28.07-4.53 0-6.81-.06C385 697 385 697 382 698v2h7v2l3-1h-2v-2c.89.04 1.77.08 2.69.12 3.28-.12 5.36-.73 8.31-2.12v-1c-4.75-.12-4.75-.12-7 1m-24 2v3l10-1c-3.99-2-5.7-2.2-10-2m-15 4c4.08 1.53 7.79.63 12 0v-1c-1.44-.22-2.87-.43-4.31-.62-.8-.12-1.6-.24-2.43-.36C358 701 358 701 355 703m-41 1c-.42 4.64.22 7.25 3 11 2.62 1.31 4.23.9 7.12.56.92-.1 1.83-.2 2.76-.31.7-.08 1.4-.16 2.12-.25l-1-2c-2.31-.73-4.65-1.4-7-2-.62-1.81-.62-1.81-1-4l2-3c-1-1-1-1-4-1.12-3 .12-3 .12-4 1.12m59 2v2h7v-2zm-66 60c2.6.28 3.7.65 5.41 2.67.4.69.8 1.37 1.21 2.08.21.34.21.34 1.23 2.05 4.15 7.96 4.76 16.91 2.13 25.53-1.25 2.94-2.59 5.8-3.98 8.67-3 7.04-4.07 12.59-1.27 19.91 1.48 3.58 3.05 7.1 4.68 10.61 2.22 4.85 2.73 8.17 2.71 13.48.01 1.24.01 2.48.01 3.75C319 858 319 858 318 861h-3c.05-.88.09-1.77.14-2.68.36-11.86-2.87-19.95-8.14-30.32-3.04-9.74-.37-18.11 3.93-26.91 3.17-7.13 3.62-15.71 1.02-23.07-1.22-2.43-2.53-4.72-3.95-7.02-.68-1.33-1.35-2.66-2-4zm27 58c4.05 3.35 5.75 7 7 12 .21 2.4.15 4.58 0 7l2 1h-2c.02.99.05 1.98.07 3 .2 12.01.2 12.01-1.07 15.94-2.22 7.28-2.31 17.6.5 24.68 2.34 6.1 2.77 11.97 1.5 18.38-2.5 5.53-6.27 10.25-10 15-.51.72-1.02 1.44-1.54 2.18-4.44 5.91-11.21 10.01-17.46 13.82h-2c2.22-5.25 5.27-9.12 10.31-11.69 5.47-2.84 8.38-8.31 11.69-13.31l1.39-1.82c3.84-5.41 3.28-11.88 2.61-18.18-.68-2.35-.68-2.35-1.5-4.44-2.85-7.36-2.19-15.66-.5-23.24 1.23-5.85 1.37-11.55 1.38-17.51.02-1.04.04-2.08.07-3.15.02-6.56-.81-10.23-4.45-15.66v-3zm328 127c.33.16.33.16 2 1-10.17 6.14-20.42 11.89-31.11 17.07-1.83.9-3.63 1.83-5.44 2.77-7.44 3.85-14.92 6.99-22.79 9.83-2.88 1.05-5.71 2.15-8.54 3.33-14.33 5.75-29.04 9.72-44.12 13-.84.19-1.68.38-2.54.58-5.45 1.18-10.52 1.68-16.08 1.54-.36 0-.36 0-2.18-.02-1.73-.03-3.47-.06-5.2-.1l1-2c2.3-.31 2.3-.31 5.31-.44 6.51-.44 12.42-1.83 18.69-3.56.55-.14.55-.14 3.35-.88 18.79-4.91 37.37-10.06 55.27-17.68 2.59-1.1 5.19-2.18 7.79-3.25 11.15-4.59 21.91-9.68 32.61-15.24 1.32-.68 2.65-1.37 3.97-2.05 1.78-.91 3.55-1.83 5.31-2.75.89-.38 1.78-.76 2.7-1.15"/></svg>